<svg viewBox="80.408 34.708 1045.292 203.062" xmlns="http://www.w3.org/2000/svg" fill="red" width="124px"><defs></defs><path className="cls-1" d="M335.14 169.38H384v12.55h-71.74V81.25h22.88zM431.5 181.93v-7.54q-.86 2-5.67 4.85t-16.38 2.9q-9.85-.36-16.4-5.06t-6.7-14.82q0-10.86 7.78-16.3t23.34-6.59c4.78-.38 8.46-1.61 11-3.66s3.87-4.37 3.87-6.94a8.29 8.29 0 00-3.56-6.7q-3.56-2.79-9.62-2.79-12.49 0-19.44 4.61t-9.09 7.73l3-14.29c0-.25 1.1-1 3.3-2.27a41.5 41.5 0 019.2-3.56 53.81 53.81 0 0114.08-1.72q16.67 0 24.11 5.67a17.82 17.82 0 017.43 14.85v51.63zm-9.92-11.23q9.92-2.7 9.92-8.65v-16.4c0 .1-.28.6-.74 1.5a7.22 7.22 0 01-3.11 2.66 21.15 21.15 0 01-7.39 1.9q-8.43 1.17-12.86 3.77t-4.4 8.94q.67 7.34 11.7 7.33a24.53 24.53 0 006.88-1.05zM478.17 127.51c0 2.77 2.47 4.86 7.41 6.24s10 2.7 15.22 3.91a35.7 35.7 0 0113.52 6.11q5.73 4.3 6 13.32 0 13.18-7.1 18.93t-20.59 6.76a48.51 48.51 0 01-5.17.21 74.83 74.83 0 01-15.82-1.46 80.46 80.46 0 01-9.23-2.39l-2.79-12.56a47.57 47.57 0 008.7 4.12 43.31 43.31 0 0015.24 2.58q9.49 0 12.89-2.87t3.56-9q0-7.07-4.77-9.33t-15.45-4.38q-10.68-2.1-16.09-6.06t-5.4-13.92q.79-17.35 27.42-18.57c.6 0 1.43 0 2.48-.1s1.81-.11 2.27-.11a71.56 71.56 0 0115.53 1.37 57.88 57.88 0 018 2.27l3.43 11.66a39.67 39.67 0 00-8.07-3.25q-6-1.92-16.29-1.92-7 0-10.87 1.6c-2.57 1.08-3.92 3.33-4.03 6.84zM557.65 119.07v41.71q0 6.22 3.69 8.86 2.64 2.12 10 2.11v10.18c-.42 0-1.17.07-2.26.11s-2.39.1-3.8.1q-13.87 0-20.3-4.75-7.61-5.16-7.6-17.5v-40.82h-13.6V110h13.6V81.25h20.31V110h13.61v9.07zM594 149.55q.48 5.7 3.91 14.4t12.49 9.12q11.08 0 17.35-2.82t8.18-4.72L632.85 178c0 .74-2.09 1.71-6.28 2.93a58.7 58.7 0 01-16 1.82c-2.56 0-4.57-.08-6-.22q-15.71-1.16-23-9t-7.46-25.29q0-19.93 8.31-29.22t24.33-9.44q19.26 0 26.11 10.13 5.85 8.39 5.85 22.68 0 2.69-.15 4.56t-.27 2.61zm14.72-30.9Q594 119.11 594 140h31.33q-.02-21.36-16.63-21.35zM707.21 126.61v55.32h-15.13v-52.69q0-9.06-13.82-9.07-6.75.8-9.68 4.2a16.21 16.21 0 00-3.51 5.51v52.05h-20.3V110h20.3v5.85L668 114a27 27 0 017-3 36.21 36.21 0 0110.47-1.37q11.24 0 16.53 5.15a16.09 16.09 0 015.21 11.83zM746.29 119.07v41.71q0 6.22 3.69 8.86 2.64 2.12 10 2.11v10.18c-.42 0-1.18.07-2.27.11s-2.39.1-3.8.1q-13.86 0-20.3-4.75-7.59-5.16-7.59-17.5v-40.82h-13.64V110H726V81.25h20.3V110H760v9.07zM807.46 181.93v-7.54q-.84 2-5.66 4.85t-16.38 2.9q-9.85-.36-16.4-5.06t-6.7-14.82q0-10.86 7.78-16.3t23.34-6.59c4.78-.38 8.46-1.61 11-3.66s3.88-4.37 3.88-6.94a8.32 8.32 0 00-3.56-6.7q-3.56-2.79-9.62-2.79-12.51 0-19.44 4.61t-9.09 7.73l3-14.29c0-.25 1.1-1 3.3-2.27a41.1 41.1 0 019.2-3.56 53.81 53.81 0 0114.08-1.72q16.66 0 24.1 5.67a17.8 17.8 0 017.44 14.85v51.63zm-9.91-11.23q9.91-2.7 9.91-8.65v-16.4c0 .1-.28.6-.73 1.5a7.22 7.22 0 01-3.11 2.66 21.15 21.15 0 01-7.39 1.9c-5.63.78-9.91 2-12.87 3.77s-4.43 4.72-4.43 8.94q.69 7.34 11.71 7.33a24.53 24.53 0 006.91-1.05zM836.21 181.93V110h20.3v8.86c.07-.07.48-.58 1.24-1.51a15.83 15.83 0 013.4-2.92 27.32 27.32 0 016.17-2.9 27.71 27.71 0 0110.6-1.75 26.59 26.59 0 016.23.43l1.74 10.39a29.35 29.35 0 00-6.91-.9 23.34 23.34 0 00-11.66 2.64 19.14 19.14 0 00-8 7.06 15.8 15.8 0 00-2.8 8.23v44.3zM919.59 184.94L886.31 110H906l17.25 38.65L940.31 110h12.29zM966.89 81a10.72 10.72 0 018.41 3.38 11.68 11.68 0 013 8.07 11.84 11.84 0 01-3.09 8.22q-3.07 3.44-8.57 3.43a10.71 10.71 0 01-8.38-3.45 11.58 11.58 0 01-3.12-8 11.88 11.88 0 013.12-8.15 10.87 10.87 0 018.63-3.5zm-10.18 100.93V110h20.1v71.93zM986.51 181.93V81.25h20.09v57.07l32.65-28.32h16.82l-30.64 25.68 34.57 46.25h-22l-26-34.33-5.43 5v29.37zM1080.28 149.55q.46 5.7 3.9 14.4t12.5 9.12q11.07 0 17.35-2.82t8.17-4.72l-3 12.5c0 .74-2.1 1.71-6.28 2.93a58.75 58.75 0 01-16 1.82c-2.57 0-4.57-.08-6-.22q-15.72-1.16-23-9t-7.46-25.29q0-19.93 8.3-29.22t24.34-9.44q19.24 0 26.11 10.13 5.85 8.39 5.85 22.68c0 1.79 0 3.31-.16 4.56s-.19 2.12-.26 2.61zm14.71-30.9q-14.71.46-14.71 21.35h31.32q0-21.36-16.6-21.35zM259.8 134.43h-76.69a4 4 0 01-4-4V53a4.92 4.92 0 00-4.62-4.67 84.83 84.83 0 00-48 151 22.15 22.15 0 0132.79 16.11 84.66 84.66 0 0042.58-.62 22.12 22.12 0 0131.27-16.21 84.67 84.67 0 0030.82-59.09v-.23a4.94 4.94 0 00-4.15-4.86z"></path><path className="cls-1" d="M155.61 218.67a18.3 18.3 0 11-18.3-18.29 18.3 18.3 0 0118.3 18.29zM201.65 221.44a91.35 91.35 0 01-42.42.57 22.13 22.13 0 01-1.93 6.26 97.91 97.91 0 0046.11-.54 22.07 22.07 0 01-1.76-6.29z"></path><path className="cls-1" d="M179.19 35.38a97.68 97.68 0 00-61.72 173.4 22.27 22.27 0 013.75-5.36 91.18 91.18 0 11117.31-1.18 22.41 22.41 0 014.15 5 97.67 97.67 0 00-63.49-171.86z"></path><path className="cls-1" d="M242 218.67a18.3 18.3 0 11-18.3-18.29 18.3 18.3 0 0118.3 18.29z"></path></svg>